<svg xmlns="http://www.w3.org/2000/svg" viewBox="0 0 256 256" role="img" aria-labelledby="title desc">
  <title id="title">余白と湯気 ロゴ</title>
  <desc id="desc">円の中に湯気のような曲線を描いた手描き風ロゴ</desc>
  <defs>
    <filter id="soften" x="-10%" y="-10%" width="120%" height="120%">
      <feGaussianBlur stdDeviation="0.35"/>
    </filter>
  </defs>
  <g fill="none" stroke="#5f5650" stroke-linecap="round" stroke-linejoin="round" filter="url(#soften)">
    <path d="M63 66c-19 18-27 47-23 78c4 27 17 49 37 63" stroke-width="4.2" opacity=".9"/>
    <path d="M194 66c17 16 27 43 24 73c-3 29-17 52-39 68" stroke-width="4.2" opacity=".88"/>
    <path d="M133 32c-16 11-27 29-28 47c-1 11 5 20 14 22c10 3 19-3 20-12c1-9-6-16-15-17c-9-1-17 3-20 10" stroke-width="4"/>
    <path d="M121 78c8 8 10 17 8 28c-3 16-16 25-28 40c-17 21-17 45-4 60" stroke-width="4"/>
    <path d="M117 147c14-15 32-21 49-17c23 5 40 24 43 50c2 18-4 32-18 44c-14 12-32 16-50 12c-15-3-28-12-35-25c-8-15-6-31 4-44c7-9 18-15 30-20" stroke-width="4.8"/>
    <path d="M72 199c17 13 39 19 61 18c22 0 43-6 61-19" stroke-width="5.4" opacity=".92"/>
  </g>
</svg>
